<mxfile host="Electron" modified="2024-02-23T12:14:41.685Z" agent="Mozilla/5.0 (Windows NT 10.0; Win64; x64) AppleWebKit/537.36 (KHTML, like Gecko) draw.io/22.1.16 Chrome/120.0.6099.109 Electron/28.1.0 Safari/537.36" etag="0vb0RG6FetIntqKEz5lL" version="22.1.16" type="device">
  <diagram name="第 1 页" id="jnDrRL5hOQPDZdu_0Wsa">
    <mxGraphModel dx="1100" dy="641" grid="1" gridSize="10" guides="1" tooltips="1" connect="1" arrows="1" fold="1" page="1" pageScale="1" pageWidth="3300" pageHeight="4681" math="0" shadow="0">
      <root>
        <mxCell id="0" />
        <mxCell id="1" parent="0" />
        <mxCell id="qx7kBC9LTjTg-VdTga5V-23" style="edgeStyle=orthogonalEdgeStyle;rounded=0;orthogonalLoop=1;jettySize=auto;html=1;exitX=0.5;exitY=0;exitDx=0;exitDy=0;entryX=0.5;entryY=1;entryDx=0;entryDy=0;" edge="1" parent="1" source="qx7kBC9LTjTg-VdTga5V-1" target="qx7kBC9LTjTg-VdTga5V-10">
          <mxGeometry relative="1" as="geometry" />
        </mxCell>
        <mxCell id="qx7kBC9LTjTg-VdTga5V-1" value="&lt;font style=&quot;font-size: 17px;&quot;&gt;噪声中文&lt;/font&gt;" style="text;html=1;strokeColor=none;fillColor=none;align=center;verticalAlign=middle;whiteSpace=wrap;rounded=1;" vertex="1" parent="1">
          <mxGeometry x="580" y="470" width="80" height="30" as="geometry" />
        </mxCell>
        <mxCell id="qx7kBC9LTjTg-VdTga5V-20" style="edgeStyle=orthogonalEdgeStyle;rounded=0;orthogonalLoop=1;jettySize=auto;html=1;exitX=0.5;exitY=0;exitDx=0;exitDy=0;entryX=0.5;entryY=1;entryDx=0;entryDy=0;" edge="1" parent="1" source="qx7kBC9LTjTg-VdTga5V-2" target="qx7kBC9LTjTg-VdTga5V-16">
          <mxGeometry relative="1" as="geometry" />
        </mxCell>
        <mxCell id="qx7kBC9LTjTg-VdTga5V-21" style="edgeStyle=orthogonalEdgeStyle;rounded=0;orthogonalLoop=1;jettySize=auto;html=1;" edge="1" parent="1" source="qx7kBC9LTjTg-VdTga5V-2">
          <mxGeometry relative="1" as="geometry">
            <mxPoint x="470" y="485" as="targetPoint" />
          </mxGeometry>
        </mxCell>
        <mxCell id="qx7kBC9LTjTg-VdTga5V-2" value="&lt;font style=&quot;font-size: 17px;&quot;&gt;英文&lt;/font&gt;" style="text;html=1;strokeColor=none;fillColor=none;align=center;verticalAlign=middle;whiteSpace=wrap;rounded=1;" vertex="1" parent="1">
          <mxGeometry x="250" y="470" width="60" height="30" as="geometry" />
        </mxCell>
        <mxCell id="qx7kBC9LTjTg-VdTga5V-25" style="edgeStyle=orthogonalEdgeStyle;rounded=0;orthogonalLoop=1;jettySize=auto;html=1;exitX=0.5;exitY=0;exitDx=0;exitDy=0;" edge="1" parent="1" source="qx7kBC9LTjTg-VdTga5V-10">
          <mxGeometry relative="1" as="geometry">
            <mxPoint x="620" y="210" as="targetPoint" />
          </mxGeometry>
        </mxCell>
        <mxCell id="qx7kBC9LTjTg-VdTga5V-10" value="" style="rounded=1;whiteSpace=wrap;html=1;fillColor=#d5e8d4;strokeColor=#82b366;direction=east;" vertex="1" parent="1">
          <mxGeometry x="560" y="260" width="120" height="170" as="geometry" />
        </mxCell>
        <mxCell id="qx7kBC9LTjTg-VdTga5V-12" value="CLIP" style="rounded=1;whiteSpace=wrap;html=1;direction=east;" vertex="1" parent="1">
          <mxGeometry x="570" y="340" width="100" height="80" as="geometry" />
        </mxCell>
        <mxCell id="qx7kBC9LTjTg-VdTga5V-13" value="Adapter" style="rounded=1;whiteSpace=wrap;html=1;direction=east;" vertex="1" parent="1">
          <mxGeometry x="570" y="280" width="100" height="40" as="geometry" />
        </mxCell>
        <mxCell id="qx7kBC9LTjTg-VdTga5V-14" value="" style="shape=image;verticalLabelPosition=bottom;verticalAlign=top;imageAspect=0;aspect=fixed;image=data:image/svg+xml,PHN2ZyB4bWxuczp4bGluaz0iaHR0cDovL3d3dy53My5vcmcvMTk5OS94bGluayIgeG1sbnM9Imh0dHA6Ly93d3cudzMub3JnLzIwMDAvc3ZnIiBoZWlnaHQ9IjIwMCIgd2lkdGg9IjIwMCIgdmVyc2lvbj0iMS4xIiB2aWV3Qm94PSIwIDAgMTAyNCAxMDI0IiBjbGFzcz0iaWNvbiI+PHBhdGggZmlsbD0iIzUxNTE1MSIgY2xhc3M9IiIgZGF0YS1zcG0tYW5jaG9yLWlkPSJhMzEzeC5zZWFyY2hfaW5kZXguMC5pNS42NGYzM2E4MWRtNXMzeCIgZD0iTTM4NS4xNTA4NDkgMzg1LjY2MjMzOGwtMTI4Ljg5NTEwNSAwIDAtMTUwLjM3NzYyMnEwLTQ5LjEwMjg5NyAxOS40MzY1NjMtOTEuNTU2NDQ0dDUzLjcwNjI5NC03NC42NzczMjMgODAuODE1MTg1LTUwLjYzNzM2MyAxMDEuNzg2MjE0LTE4LjQxMzU4NnE0OS4xMDI4OTcgMCA5NC42MjUzNzUgMTguNDEzNTg2dDgwLjgxNTE4NSA1MC42MzczNjMgNTYuMjYzNzM2IDc0LjY3NzMyMyAyMC45NzEwMjkgOTEuNTU2NDQ0bDAgMTUwLjM3NzYyMi0xMjMuNzgwMjIgMCAwLTEyMS43MzQyNjZxMC02NC40NDc1NTItMzUuODA0MTk2LTk5Ljc0MDI2dC05Ny4xODI4MTctMzUuMjkyNzA3cS01NS4yNDA3NTkgMC04OC45OTkwMDEgMzUuMjkyNzA3dC0zMy43NTgyNDIgOTkuNzQwMjZsMCAxMjEuNzM0MjY2ek04MjYuMDUzOTQ2IDQ0Ny4wNDA5NTlxMjcuNjIwMzggMCA0Ny41Njg0MzIgMTkuOTQ4MDUydDE5Ljk0ODA1MiA0Ny41Njg0MzJsMCAzMTcuMTIyODc3cTAgMjcuNjIwMzgtOS43MTgyODIgNTEuNjYwMzR0LTI2LjU5NzQwMyA0MS45NDIwNTgtMzkuODk2MTA0IDI4LjEzMTg2OC01MC42MzczNjMgMTAuMjI5NzdsLTUxNi42MDMzOTcgMHEtMjcuNjIwMzggMC01MC4xMjU4NzQtMTAuMjI5Nzd0LTM4LjM2MTYzOC0yNy4xMDg4OTEtMjQuNTUxNDQ5LTM5LjM4NDYxNS04LjY5NTMwNS00OC4wNzk5MmwwLTMyNC4yODM3MTZxMC0yNy42MjAzOCAxOS40MzY1NjMtNDcuNTY4NDMydDQ3LjA1Njk0My0xOS45NDgwNTJsNjEuMzc4NjIxIDAgMTI4Ljg5NTEwNSAwIDI1NS43NDQyNTYgMCAxMjMuNzgwMjIgMCA2MS4zNzg2MjEgMHoiLz48L3N2Zz4=;rounded=1;direction=east;" vertex="1" parent="1">
          <mxGeometry x="650" y="400" width="20" height="20" as="geometry" />
        </mxCell>
        <mxCell id="qx7kBC9LTjTg-VdTga5V-24" style="edgeStyle=orthogonalEdgeStyle;rounded=0;orthogonalLoop=1;jettySize=auto;html=1;exitX=0.5;exitY=0;exitDx=0;exitDy=0;" edge="1" parent="1" source="qx7kBC9LTjTg-VdTga5V-16">
          <mxGeometry relative="1" as="geometry">
            <mxPoint x="280" y="210" as="targetPoint" />
          </mxGeometry>
        </mxCell>
        <mxCell id="qx7kBC9LTjTg-VdTga5V-16" value="" style="rounded=1;whiteSpace=wrap;html=1;fillColor=#d5e8d4;strokeColor=#82b366;direction=east;" vertex="1" parent="1">
          <mxGeometry x="220" y="320" width="120" height="110" as="geometry" />
        </mxCell>
        <mxCell id="qx7kBC9LTjTg-VdTga5V-17" value="CLIP" style="rounded=1;whiteSpace=wrap;html=1;direction=east;" vertex="1" parent="1">
          <mxGeometry x="230" y="336" width="100" height="80" as="geometry" />
        </mxCell>
        <mxCell id="qx7kBC9LTjTg-VdTga5V-19" value="" style="shape=image;verticalLabelPosition=bottom;verticalAlign=top;imageAspect=0;aspect=fixed;image=data:image/svg+xml,PHN2ZyB4bWxuczp4bGluaz0iaHR0cDovL3d3dy53My5vcmcvMTk5OS94bGluayIgeG1sbnM9Imh0dHA6Ly93d3cudzMub3JnLzIwMDAvc3ZnIiBoZWlnaHQ9IjIwMCIgd2lkdGg9IjIwMCIgdmVyc2lvbj0iMS4xIiB2aWV3Qm94PSIwIDAgMTAyNCAxMDI0IiBjbGFzcz0iaWNvbiI+PHBhdGggZmlsbD0iIzUxNTE1MSIgY2xhc3M9IiIgZGF0YS1zcG0tYW5jaG9yLWlkPSJhMzEzeC5zZWFyY2hfaW5kZXguMC5pNS42NGYzM2E4MWRtNXMzeCIgZD0iTTM4NS4xNTA4NDkgMzg1LjY2MjMzOGwtMTI4Ljg5NTEwNSAwIDAtMTUwLjM3NzYyMnEwLTQ5LjEwMjg5NyAxOS40MzY1NjMtOTEuNTU2NDQ0dDUzLjcwNjI5NC03NC42NzczMjMgODAuODE1MTg1LTUwLjYzNzM2MyAxMDEuNzg2MjE0LTE4LjQxMzU4NnE0OS4xMDI4OTcgMCA5NC42MjUzNzUgMTguNDEzNTg2dDgwLjgxNTE4NSA1MC42MzczNjMgNTYuMjYzNzM2IDc0LjY3NzMyMyAyMC45NzEwMjkgOTEuNTU2NDQ0bDAgMTUwLjM3NzYyMi0xMjMuNzgwMjIgMCAwLTEyMS43MzQyNjZxMC02NC40NDc1NTItMzUuODA0MTk2LTk5Ljc0MDI2dC05Ny4xODI4MTctMzUuMjkyNzA3cS01NS4yNDA3NTkgMC04OC45OTkwMDEgMzUuMjkyNzA3dC0zMy43NTgyNDIgOTkuNzQwMjZsMCAxMjEuNzM0MjY2ek04MjYuMDUzOTQ2IDQ0Ny4wNDA5NTlxMjcuNjIwMzggMCA0Ny41Njg0MzIgMTkuOTQ4MDUydDE5Ljk0ODA1MiA0Ny41Njg0MzJsMCAzMTcuMTIyODc3cTAgMjcuNjIwMzgtOS43MTgyODIgNTEuNjYwMzR0LTI2LjU5NzQwMyA0MS45NDIwNTgtMzkuODk2MTA0IDI4LjEzMTg2OC01MC42MzczNjMgMTAuMjI5NzdsLTUxNi42MDMzOTcgMHEtMjcuNjIwMzggMC01MC4xMjU4NzQtMTAuMjI5Nzd0LTM4LjM2MTYzOC0yNy4xMDg4OTEtMjQuNTUxNDQ5LTM5LjM4NDYxNS04LjY5NTMwNS00OC4wNzk5MmwwLTMyNC4yODM3MTZxMC0yNy42MjAzOCAxOS40MzY1NjMtNDcuNTY4NDMydDQ3LjA1Njk0My0xOS45NDgwNTJsNjEuMzc4NjIxIDAgMTI4Ljg5NTEwNSAwIDI1NS43NDQyNTYgMCAxMjMuNzgwMjIgMCA2MS4zNzg2MjEgMHoiLz48L3N2Zz4=;rounded=1;direction=east;" vertex="1" parent="1">
          <mxGeometry x="308" y="396" width="20" height="20" as="geometry" />
        </mxCell>
        <mxCell id="qx7kBC9LTjTg-VdTga5V-22" value="机器翻译" style="text;html=1;strokeColor=none;fillColor=none;align=center;verticalAlign=middle;whiteSpace=wrap;rounded=0;" vertex="1" parent="1">
          <mxGeometry x="380" y="460" width="60" height="30" as="geometry" />
        </mxCell>
        <mxCell id="qx7kBC9LTjTg-VdTga5V-28" value="Prompt" style="rounded=1;whiteSpace=wrap;html=1;direction=east;" vertex="1" parent="1">
          <mxGeometry x="480" y="460" width="100" height="40" as="geometry" />
        </mxCell>
        <mxCell id="qx7kBC9LTjTg-VdTga5V-30" style="edgeStyle=orthogonalEdgeStyle;rounded=0;orthogonalLoop=1;jettySize=auto;html=1;exitX=0.5;exitY=0;exitDx=0;exitDy=0;entryX=0.5;entryY=1;entryDx=0;entryDy=0;" edge="1" source="qx7kBC9LTjTg-VdTga5V-31" target="qx7kBC9LTjTg-VdTga5V-33" parent="1">
          <mxGeometry relative="1" as="geometry" />
        </mxCell>
        <mxCell id="qx7kBC9LTjTg-VdTga5V-31" value="&lt;font style=&quot;font-size: 17px;&quot;&gt;干净中文&lt;/font&gt;" style="text;html=1;strokeColor=none;fillColor=none;align=center;verticalAlign=middle;whiteSpace=wrap;rounded=1;" vertex="1" parent="1">
          <mxGeometry x="745" y="470" width="70" height="30" as="geometry" />
        </mxCell>
        <mxCell id="qx7kBC9LTjTg-VdTga5V-32" style="edgeStyle=orthogonalEdgeStyle;rounded=0;orthogonalLoop=1;jettySize=auto;html=1;exitX=0.5;exitY=0;exitDx=0;exitDy=0;" edge="1" source="qx7kBC9LTjTg-VdTga5V-33" parent="1">
          <mxGeometry relative="1" as="geometry">
            <mxPoint x="780" y="210" as="targetPoint" />
          </mxGeometry>
        </mxCell>
        <mxCell id="qx7kBC9LTjTg-VdTga5V-33" value="" style="rounded=1;whiteSpace=wrap;html=1;fillColor=#d5e8d4;strokeColor=#82b366;direction=east;" vertex="1" parent="1">
          <mxGeometry x="720" y="260" width="120" height="170" as="geometry" />
        </mxCell>
        <mxCell id="qx7kBC9LTjTg-VdTga5V-34" value="CLIP" style="rounded=1;whiteSpace=wrap;html=1;direction=east;" vertex="1" parent="1">
          <mxGeometry x="730" y="340" width="100" height="80" as="geometry" />
        </mxCell>
        <mxCell id="qx7kBC9LTjTg-VdTga5V-35" value="Adapter" style="rounded=1;whiteSpace=wrap;html=1;direction=east;" vertex="1" parent="1">
          <mxGeometry x="730" y="280" width="100" height="40" as="geometry" />
        </mxCell>
        <mxCell id="qx7kBC9LTjTg-VdTga5V-36" value="" style="shape=image;verticalLabelPosition=bottom;verticalAlign=top;imageAspect=0;aspect=fixed;image=data:image/svg+xml,PHN2ZyB4bWxuczp4bGluaz0iaHR0cDovL3d3dy53My5vcmcvMTk5OS94bGluayIgeG1sbnM9Imh0dHA6Ly93d3cudzMub3JnLzIwMDAvc3ZnIiBoZWlnaHQ9IjIwMCIgd2lkdGg9IjIwMCIgdmVyc2lvbj0iMS4xIiB2aWV3Qm94PSIwIDAgMTAyNCAxMDI0IiBjbGFzcz0iaWNvbiI+PHBhdGggZmlsbD0iIzUxNTE1MSIgY2xhc3M9IiIgZGF0YS1zcG0tYW5jaG9yLWlkPSJhMzEzeC5zZWFyY2hfaW5kZXguMC5pNS42NGYzM2E4MWRtNXMzeCIgZD0iTTM4NS4xNTA4NDkgMzg1LjY2MjMzOGwtMTI4Ljg5NTEwNSAwIDAtMTUwLjM3NzYyMnEwLTQ5LjEwMjg5NyAxOS40MzY1NjMtOTEuNTU2NDQ0dDUzLjcwNjI5NC03NC42NzczMjMgODAuODE1MTg1LTUwLjYzNzM2MyAxMDEuNzg2MjE0LTE4LjQxMzU4NnE0OS4xMDI4OTcgMCA5NC42MjUzNzUgMTguNDEzNTg2dDgwLjgxNTE4NSA1MC42MzczNjMgNTYuMjYzNzM2IDc0LjY3NzMyMyAyMC45NzEwMjkgOTEuNTU2NDQ0bDAgMTUwLjM3NzYyMi0xMjMuNzgwMjIgMCAwLTEyMS43MzQyNjZxMC02NC40NDc1NTItMzUuODA0MTk2LTk5Ljc0MDI2dC05Ny4xODI4MTctMzUuMjkyNzA3cS01NS4yNDA3NTkgMC04OC45OTkwMDEgMzUuMjkyNzA3dC0zMy43NTgyNDIgOTkuNzQwMjZsMCAxMjEuNzM0MjY2ek04MjYuMDUzOTQ2IDQ0Ny4wNDA5NTlxMjcuNjIwMzggMCA0Ny41Njg0MzIgMTkuOTQ4MDUydDE5Ljk0ODA1MiA0Ny41Njg0MzJsMCAzMTcuMTIyODc3cTAgMjcuNjIwMzgtOS43MTgyODIgNTEuNjYwMzR0LTI2LjU5NzQwMyA0MS45NDIwNTgtMzkuODk2MTA0IDI4LjEzMTg2OC01MC42MzczNjMgMTAuMjI5NzdsLTUxNi42MDMzOTcgMHEtMjcuNjIwMzggMC01MC4xMjU4NzQtMTAuMjI5Nzd0LTM4LjM2MTYzOC0yNy4xMDg4OTEtMjQuNTUxNDQ5LTM5LjM4NDYxNS04LjY5NTMwNS00OC4wNzk5MmwwLTMyNC4yODM3MTZxMC0yNy42MjAzOCAxOS40MzY1NjMtNDcuNTY4NDMydDQ3LjA1Njk0My0xOS45NDgwNTJsNjEuMzc4NjIxIDAgMTI4Ljg5NTEwNSAwIDI1NS43NDQyNTYgMCAxMjMuNzgwMjIgMCA2MS4zNzg2MjEgMHoiLz48L3N2Zz4=;rounded=1;direction=east;" vertex="1" parent="1">
          <mxGeometry x="810" y="400" width="20" height="20" as="geometry" />
        </mxCell>
        <mxCell id="qx7kBC9LTjTg-VdTga5V-37" value="" style="endArrow=classic;startArrow=classic;html=1;rounded=0;" edge="1" parent="1">
          <mxGeometry width="50" height="50" relative="1" as="geometry">
            <mxPoint x="280" y="200" as="sourcePoint" />
            <mxPoint x="610" y="200" as="targetPoint" />
          </mxGeometry>
        </mxCell>
        <mxCell id="qx7kBC9LTjTg-VdTga5V-39" value="" style="endArrow=classic;startArrow=classic;html=1;rounded=0;" edge="1" parent="1">
          <mxGeometry width="50" height="50" relative="1" as="geometry">
            <mxPoint x="620" y="200" as="sourcePoint" />
            <mxPoint x="770" y="200" as="targetPoint" />
          </mxGeometry>
        </mxCell>
        <mxCell id="qx7kBC9LTjTg-VdTga5V-40" value="Loss1" style="text;html=1;strokeColor=none;fillColor=none;align=center;verticalAlign=middle;whiteSpace=wrap;rounded=0;" vertex="1" parent="1">
          <mxGeometry x="410" y="170" width="60" height="30" as="geometry" />
        </mxCell>
        <mxCell id="qx7kBC9LTjTg-VdTga5V-41" value="Loss2" style="text;html=1;strokeColor=none;fillColor=none;align=center;verticalAlign=middle;whiteSpace=wrap;rounded=0;" vertex="1" parent="1">
          <mxGeometry x="660" y="170" width="60" height="30" as="geometry" />
        </mxCell>
      </root>
    </mxGraphModel>
  </diagram>
</mxfile>
